<svg id="katman_1" data-name="katman 1" xmlns="http://www.w3.org/2000/svg" viewBox="0 0 210 210"><defs><style>.cls-1,.cls-4{fill:#172e6f;}.cls-2,.cls-3{fill:none;stroke:#23c1ff;stroke-linecap:round;stroke-linejoin:round;}.cls-2{stroke-width:5px;}.cls-3{stroke-width:3px;}.cls-4{font-size:39.73px;font-family:HindGuntur-Medium, Hind Guntur;}</style></defs><title>BUL-1</title><path class="cls-1" d="M104.28,10.19a94,94,0,1,1-94,94,94.1,94.1,0,0,1,94-94m0-6a100,100,0,1,0,100,100,100,100,0,0,0-100-100Z"/><circle class="cls-2" cx="85.58" cy="70.37" r="39.9"/><line class="cls-2" x1="114.3" y1="99.09" x2="154.6" y2="139.4"/><path class="cls-3" d="M106.74,91.53A29.92,29.92,0,0,1,64.42,49.21"/><path class="cls-3" d="M71.67,43.87a30.05,30.05,0,0,1,12.27-3.38"/><line class="cls-3" x1="141.73" y1="136.15" x2="146.43" y2="140.85"/><line class="cls-3" x1="116.2" y1="110.62" x2="136.36" y2="130.77"/><text class="cls-4" transform="translate(71 176.84)">BUL</text></svg>