<svg id="katman_1" data-name="katman 1" xmlns="http://www.w3.org/2000/svg" viewBox="0 0 210 210"><defs><style>.cls-1{fill:#172e6f;}.cls-2,.cls-3,.cls-4,.cls-5{fill:none;}.cls-2,.cls-5{stroke:#172e6f;stroke-miterlimit:10;stroke-width:3px;}.cls-2,.cls-3,.cls-4{stroke-linecap:round;}.cls-3,.cls-4{stroke:#23c1ff;stroke-linejoin:round;}.cls-3{stroke-width:6px;}.cls-4{stroke-width:5px;}</style></defs><title>saat</title><path class="cls-1" d="M105,11a94,94,0,1,1-94,94,94.11,94.11,0,0,1,94-94m0-6A100,100,0,1,0,205,105,100,100,0,0,0,105,5Z"/><line class="cls-2" x1="127.44" y1="166.97" x2="140.46" y2="166.97"/><line class="cls-2" x1="68.87" y1="166.97" x2="121.86" y2="166.97"/><circle class="cls-3" cx="106.88" cy="99" r="57.5"/><polyline class="cls-4" points="106.5 63.5 106.5 100.5 129.5 123.5"/><circle class="cls-5" cx="106.88" cy="51.5" r="1.5"/><circle class="cls-5" cx="106.88" cy="146.5" r="1.5"/><circle class="cls-5" cx="59.38" cy="99" r="1.5"/><circle class="cls-5" cx="154.38" cy="99" r="1.5"/></svg>