<svg id="katman_1" data-name="katman 1" xmlns="http://www.w3.org/2000/svg" xmlns:xlink="http://www.w3.org/1999/xlink" viewBox="0 0 210 210"><defs><style>.cls-1{fill:url(#Adsız_degrade_13);}.cls-2,.cls-3,.cls-4{fill:none;stroke-miterlimit:10;stroke-width:5px;}.cls-2{stroke:url(#Adsız_degrade_13-2);}.cls-3{stroke:url(#Adsız_degrade_13-3);}.cls-4{stroke:url(#Adsız_degrade_13-4);}</style><linearGradient id="Adsız_degrade_13" x1="105.32" y1="205.25" x2="105.32" y2="5.25" gradientUnits="userSpaceOnUse"><stop offset="0" stop-color="#172e6f"/><stop offset="1" stop-color="#23c1ff"/></linearGradient><linearGradient id="Adsız_degrade_13-2" x1="105.32" y1="165" x2="105.32" y2="129" xlink:href="#Adsız_degrade_13"/><linearGradient id="Adsız_degrade_13-3" x1="105.32" y1="130.69" x2="105.32" y2="92.23" xlink:href="#Adsız_degrade_13"/><linearGradient id="Adsız_degrade_13-4" x1="105.32" y1="105.64" x2="105.32" y2="49.5" xlink:href="#Adsız_degrade_13"/></defs><title>internet</title><path class="cls-1" d="M105.32,11.25a94,94,0,1,1-94,94,94.11,94.11,0,0,1,94-94m0-6a100,100,0,1,0,100,100,100,100,0,0,0-100-100Z"/><circle class="cls-2" cx="105.32" cy="147" r="15.5"/><path class="cls-3" d="M139.22,126.89c-8.7-9.83-20.67-15.92-33.89-15.92s-25.21,6.1-33.91,15.94L61.34,115.43c11.27-12.79,26.83-20.7,44-20.7s32.7,7.9,44,20.68l-10.08,11.48Z"/><path class="cls-4" d="M49.09,101.48,34.8,85.21C52.87,64.69,77.81,52,105.33,52s52.45,12.68,70.51,33.2l-14.62,16.65c-14.33-16.25-34.08-26.29-55.89-26.29s-41.58,10-55.9,26.3Z"/></svg>