<svg id="katman_1" data-name="katman 1" xmlns="http://www.w3.org/2000/svg" viewBox="0 0 210 210"><defs><style>.cls-1,.cls-4{fill:#172e6f;}.cls-2,.cls-3{fill:none;stroke:#23c1ff;stroke-linecap:round;stroke-miterlimit:10;}.cls-2{stroke-width:5px;}.cls-3{stroke-width:3px;}.cls-4{font-size:39.73px;font-family:HindGuntur-Medium, Hind Guntur;}</style></defs><title>ARA-1</title><path class="cls-1" d="M104.93,11.37a94,94,0,1,1-94,94,94.11,94.11,0,0,1,94-94m0-6a100,100,0,1,0,100,100,100,100,0,0,0-100-100Z"/><path class="cls-2" d="M125.05,110.38C82.47,155.32,58.13,139,49.82,130.19a11.22,11.22,0,0,1-3-8.37l.08-1.31a11.27,11.27,0,0,1,7.07-9.8L70.79,104a11.28,11.28,0,0,1,11.61,2h0a11.27,11.27,0,0,0,14,.65h0a111,111,0,0,0,24.84-24.83h0a11.28,11.28,0,0,0-.65-14h0a11.28,11.28,0,0,1-2-11.62l6.73-16.84a11.29,11.29,0,0,1,9.81-7.07l1.31-.08a11.21,11.21,0,0,1,8.37,3C153.66,43.46,170,67.79,125.05,110.38Z"/><path class="cls-3" d="M160.82,72.21A51.21,51.21,0,0,0,162,59.69"/><path class="cls-3" d="M131.06,115.13s17.31-12.12,26-31.68"/><text class="cls-4" transform="translate(67 176.84)">ARA</text></svg>