<svg xmlns="http://www.w3.org/2000/svg" viewBox="0 0 210 210"><defs><style>.cls-1{fill:#172e6f;}.cls-2,.cls-3,.cls-4{fill:none;stroke-linecap:round;}.cls-2{stroke:#172e6f;stroke-miterlimit:10;}.cls-2,.cls-4{stroke-width:3px;}.cls-3,.cls-4{stroke:#23c1ff;stroke-linejoin:round;}.cls-3{stroke-width:6px;}</style></defs><title>yatak</title><path class="cls-1" d="M105,11a94,94,0,0,1,58.14,167.87A94,94,0,0,1,11,105a94.11,94.11,0,0,1,94-94m0-6A100,100,0,1,0,205,105,100,100,0,0,0,105,5Z"/><rect class="cls-2" x="60.63" y="92" width="37" height="13"/><rect class="cls-2" x="113.63" y="92" width="37" height="13"/><path class="cls-3" d="M47.66,105H163.59a8.53,8.53,0,0,1,8.53,8.53V137a0,0,0,0,1,0,0h-133a0,0,0,0,1,0,0V113.53A8.53,8.53,0,0,1,47.66,105Z"/><path class="cls-3" d="M61.47,74h88.32a13.34,13.34,0,0,1,13.34,13.34V105a0,0,0,0,1,0,0h-115a0,0,0,0,1,0,0V87.34A13.34,13.34,0,0,1,61.47,74Z"/><rect class="cls-4" x="39.13" y="137" width="9" height="12"/><rect class="cls-4" x="163.13" y="137" width="9" height="12"/><line class="cls-2" x1="112.5" y1="148.5" x2="129.5" y2="148.5"/><line class="cls-2" x1="55.5" y1="148.5" x2="98.5" y2="148.5"/></svg>