<svg xmlns="http://www.w3.org/2000/svg" viewBox="0 0 210 210"><defs><style>.cls-1,.cls-4{fill:none;stroke:#23c1ff;stroke-linecap:round;stroke-linejoin:round;}.cls-1{stroke-width:6px;}.cls-2{fill:#172e6f;}.cls-3{fill:#23c1ff;}.cls-4{stroke-width:3px;}</style></defs><title>banyo</title><path class="cls-1" d="M105.33,8h0a12.91,12.91,0,0,1,12.91,12.91V40a0,0,0,0,1,0,0H92.43a0,0,0,0,1,0,0V20.91A12.91,12.91,0,0,1,105.33,8Z"/><path class="cls-2" d="M105,11a94,94,0,0,1,58.14,167.87A94,94,0,0,1,11,105a94.11,94.11,0,0,1,94-94m0-6A100,100,0,1,0,205,105,100,100,0,0,0,105,5Z"/><path class="cls-1" d="M156.23,83A51.62,51.62,0,0,0,54.44,83Z"/><rect class="cls-1" x="41.67" y="83.04" width="127.33" height="15.49" rx="7.74" ry="7.74"/><path class="cls-3" d="M67.63,113.5l2.37,18a4.54,4.54,0,1,1-9,1.18,4.66,4.66,0,0,1,0-1.18l2.37-18a2.15,2.15,0,0,1,4.26,0Z"/><path class="cls-3" d="M67.63,155.5l2.37,18a4.54,4.54,0,0,1-9,1.18,4.66,4.66,0,0,1,0-1.18l2.37-18a2.15,2.15,0,0,1,4.26,0Z"/><path class="cls-3" d="M118.63,113.5l2.37,18a4.54,4.54,0,0,1-9,1.18,4.66,4.66,0,0,1,0-1.18l2.37-18a2.15,2.15,0,0,1,4.26,0Z"/><path class="cls-3" d="M118.63,155.5l2.37,18a4.54,4.54,0,0,1-9,1.18,4.66,4.66,0,0,1,0-1.18l2.37-18a2.15,2.15,0,0,1,4.26,0Z"/><path class="cls-3" d="M148.63,106.5l2.37,18a4.54,4.54,0,0,1-9,1.18,4.66,4.66,0,0,1,0-1.18l2.37-18a2.15,2.15,0,0,1,4.26,0Z"/><path class="cls-3" d="M147.55,148.5l2.37,10.69a4.61,4.61,0,1,1-9,0l2.37-10.69a2.18,2.18,0,0,1,2.6-1.66A2.2,2.2,0,0,1,147.55,148.5Z"/><path class="cls-3" d="M93.63,106.5l2.37,18a4.54,4.54,0,1,1-9,1.18,4.66,4.66,0,0,1,0-1.18l2.37-18a2.15,2.15,0,0,1,4.26,0Z"/><path class="cls-3" d="M92.55,148.5l2.37,10.69a4.61,4.61,0,1,1-9,0l2.37-10.69a2.18,2.18,0,0,1,2.6-1.66A2.2,2.2,0,0,1,92.55,148.5Z"/><path class="cls-4" d="M92.43,50.21A49.15,49.15,0,0,1,105.5,47.5"/><path class="cls-4" d="M66.5,72.5A48.4,48.4,0,0,1,86,53.07"/></svg>