<svg id="katman_1" data-name="katman 1" xmlns="http://www.w3.org/2000/svg" viewBox="0 0 210 210"><defs><style>.cls-1{fill:#172e6f;}.cls-2,.cls-3,.cls-4{fill:none;stroke-linecap:round;stroke-miterlimit:10;}.cls-2,.cls-4{stroke:#23c1ff;}.cls-2{stroke-width:5px;}.cls-3{stroke:#172e6f;}.cls-3,.cls-4{stroke-width:3px;}</style></defs><title>mail2</title><path class="cls-1" d="M105,11a94,94,0,1,1-94,94,94.11,94.11,0,0,1,94-94m0-6A100,100,0,1,0,205,105,100,100,0,0,0,105,5Z"/><path class="cls-2" d="M61.41,67.5h86.69A12.91,12.91,0,0,1,161,80.41v50.65a17.33,17.33,0,0,1-17.33,17.33H65.83A17.33,17.33,0,0,1,48.5,131.06V80.41A12.91,12.91,0,0,1,61.41,67.5Z"/><line class="cls-2" x1="143.33" y1="84.82" x2="157.5" y2="71.5"/><path class="cls-2" d="M53.5,71.5l44.12,37.15a10.92,10.92,0,0,0,13.62.37l20-15"/><line class="cls-3" x1="115.44" y1="155.97" x2="128.46" y2="155.97"/><line class="cls-3" x1="56.87" y1="155.97" x2="109.86" y2="155.97"/><line class="cls-4" x1="87.35" y1="110.31" x2="92.5" y2="114.5"/><line class="cls-4" x1="65.5" y1="92.5" x2="83.37" y2="107.06"/></svg>